<?xml version="1.0" encoding="UTF-8" standalone="no"?>
<!DOCTYPE svg PUBLIC "-//W3C//DTD SVG 1.1//EN" "http://www.w3.org/Graphics/SVG/1.1/DTD/svg11.dtd">
<svg width="100%" height="100%" viewBox="0 0 4212 4294" version="1.1" xmlns="http://www.w3.org/2000/svg" xmlns:xlink="http://www.w3.org/1999/xlink" xml:space="preserve" xmlns:serif="http://www.serif.com/" style="fill-rule:evenodd;clip-rule:evenodd;stroke-linejoin:round;stroke-miterlimit:2;">
    <g id="Hintergrund" transform="matrix(4.193359,0,0,4.193359,0,0)">
        <path d="M972.96,431.467C973.735,444.985 973.44,444.918 974.982,458.452C990.498,594.558 942.754,808.091 804.228,903.105C713.716,965.188 569.208,987.202 453.534,974.214C411.08,969.447 411.594,966.975 397.519,964.388C369.238,959.19 367.693,964.504 295.562,936.347C288.762,933.693 204.465,905.791 126.332,823.658C108.759,805.185 75.214,768.991 45.677,686.438C13.839,597.456 22.22,527.648 45.339,434.458C74.079,318.61 125.125,238.197 199.863,167.905C271.364,100.658 381.373,64.47 398.602,58.803C476.216,33.271 551.615,20.284 652.425,43.808C780.963,73.803 847.975,152.671 898.325,230.611C902.168,236.561 913.769,254.518 938.694,309.411C940.769,313.98 939.693,314.416 951.954,341.296C967.363,375.078 972.228,424.097 972.96,431.467Z"/>
        <path d="M951.042,528.482C947.219,613.283 916.641,786.325 806.875,869.983C752.228,911.633 669.761,942.372 588.548,949.996C576.119,951.163 512.91,957.096 432.526,947.297C398.171,943.109 357.843,928.555 315.451,917.698C310.837,916.516 311.766,914.517 261.41,892.706C229.456,878.866 219.911,873.161 174.902,832.07C139.688,799.922 92.457,729.737 71.685,672.432C42.607,592.209 45.472,535.67 70.745,423.556C92.038,329.095 159.073,140.876 454.582,66.84C467.85,63.516 562.728,37.457 683.572,82.316C830.719,136.939 892.935,264.84 906.158,292.669C924.292,330.835 924.641,330.693 931.398,354.529C935.53,369.105 935.129,377.696 939.456,389.516C941.206,394.296 941.609,395.398 948.431,452.508C952.723,488.436 951.259,520.306 951.042,528.482Z" style="fill:rgb(254,254,254);"/>
        <path d="M678.472,745.044C647.926,746.885 645.382,745.412 646.239,748.545C651.849,769.081 673.425,812.828 675.494,813.514C677.48,814.171 757.025,777.82 778.638,835.448C788.445,861.596 769.923,889.317 707.426,901.106C611.2,919.258 593.957,899.62 587.616,892.399C572.594,875.291 582.934,843.537 611.766,826.97C615.281,824.95 611.592,821.228 604.98,809.237C585.684,774.244 583.547,775.755 568.829,761.159C564.093,756.463 567.101,751.102 563.501,751.362C561.186,751.53 536.686,753.304 534.689,754.784C531.541,757.116 531.1,764.578 531.046,765.48C530.709,771.193 523.557,778.691 518.232,803.44C516.252,812.646 513.064,831.161 507.122,840.321C505.008,843.58 513.765,842.327 521.06,855.727C540.115,890.726 486.268,925.493 454.531,928.729C387.529,935.562 317.31,910.111 342.835,862.684C358.969,832.705 391.453,829.155 396.51,828.602C411.631,826.95 427.893,833.548 428.463,830.486C435.793,791.115 452.822,780.965 455.191,764.469C456.112,758.057 413.244,771.457 389.499,771.614C386.594,771.633 374.152,771.715 354.745,761.065C342.101,754.126 346.456,742.128 345.09,736.597C332.25,684.593 333.37,671.171 344.412,572.49C345.299,564.564 346.848,555.724 345.341,554.717C339.955,551.117 339.833,550.871 338.471,544.507C334.392,525.452 309.561,514.978 308.513,515.52C305.525,517.067 286.872,559.771 229.553,551.189C170.808,542.394 153.231,457.972 192.754,430.876C211.863,417.776 240.417,436.19 242.676,429.57C243.705,426.556 245.903,414.176 261.791,403.958C272.289,397.206 287.216,394.633 304.112,406.999C323.282,421.029 326.054,467.165 326.888,468.212C328.116,469.752 329.646,468.132 344.036,485.888C344.463,486.414 347.891,491.752 348.656,489.586C349.856,486.187 346.97,486.051 349,444.532C349.623,431.775 353.628,398.36 359.979,382.699C375.765,343.774 487.023,203.188 492.222,188.402C498.185,171.444 505.388,154.85 519.486,159.536C523.733,160.947 523.517,161.367 561.084,196.932C601.219,234.929 620.77,262.054 691.491,336.509C730.338,377.408 729.308,389.564 734.618,475.481C734.852,479.271 739.997,474.11 744.767,470.892C755.757,463.479 757.434,463.418 756.752,455.478C756.649,454.282 757.779,454.282 756.665,440.484C751.988,382.554 780.192,362.205 793.512,366.461C816.522,373.814 811.398,393.138 816.762,388.95C860.455,354.829 897.136,388.909 892.04,461.462C887.654,523.907 845.461,561.348 796.618,536.274C783.343,529.459 777.324,515.882 774.482,516.418C767.608,517.715 749.799,538.486 743.548,538.902C739.012,539.204 739.996,540.922 740.265,545.515C743.064,593.313 743.593,593.195 751.487,640.502C758.184,680.635 760.159,711.366 758.017,720.372C754.394,735.61 737.828,738.343 735.538,738.721C718.746,741.491 683.047,744.64 678.472,745.044Z"/>
        <path d="M535.526,392.956C651.301,386.332 651.314,387.287 656.501,387.454C659.621,387.554 683.008,388.308 695.444,389.844C697.89,390.146 699.769,398.233 701.663,407.468C703.403,415.953 711.025,535.442 711.501,561.5C712.549,618.987 721.059,636.473 722.244,674.51C723.142,703.322 722.972,704.423 720.576,704.817C664.914,713.979 610.812,714.041 577.485,718.383C508.11,727.421 508.114,726.552 438.535,733.824C421.561,735.598 379.21,746.467 377.166,735.582C371.927,707.686 360.948,695.796 371.213,586.47C376.971,525.143 376.167,525.123 376.777,463.504C377.156,425.22 381.518,408.514 382.577,407.607C383.6,406.731 383.769,407.219 389.504,407.302C425.592,407.827 482.778,398.534 486.628,396.792C494.244,393.346 494.673,395.409 535.526,392.956Z" style="fill:rgb(254,254,254);"/>
        <path d="M532.553,371.967C480.039,378.641 480.275,380.028 427.475,384.154C392.88,386.858 386.124,391.014 387.941,385.638C409.283,322.51 476.164,272.449 518.198,196.328C520.782,191.649 522.271,194.142 526.216,197.814C562.947,232.006 604.235,280.323 632.143,311.811C635.413,315.501 658.295,341.318 673.665,357.345C676.978,360.8 675.833,361.366 675.488,361.473C669.779,363.242 611.03,362.396 532.553,371.967Z" style="fill:rgb(254,254,254);"/>
        <path d="M124.03,456.421C98.578,598.69 137.436,667.081 151.895,694.289C181.115,749.276 231.792,802.65 272.789,832.107C274.336,833.219 308.935,855.76 296.186,869.202C291.734,873.897 284.361,881.671 224.886,831.04C69.793,699.009 82.138,558.635 92.838,475.549C106.038,373.042 149.389,305.15 201.454,250.457C231.4,219 270.979,189.163 278.493,189.609C283.957,189.933 295.55,199.052 280.755,208.894C153.286,293.69 134.147,401.928 124.03,456.421Z"/>
        <path d="M378.543,144.942C379.403,144.971 385.536,145.182 388.193,149.695C393.742,159.124 391.176,171.682 390.791,173.564C388.678,183.905 393.954,196.164 399.026,219.602C413.42,286.124 368.068,301.437 345.49,300.915C303.896,299.952 286.894,259.456 307.513,251.529C321.33,246.216 327.254,258.608 330.869,264.257C340.237,278.895 375.077,277.487 381.424,251.482C385.603,234.356 377.92,201.374 377.13,198.703C377.074,198.514 376.672,197.158 374.669,198.739C352.328,216.372 330.489,208.497 319.755,198.232C285.296,165.28 333.063,123.889 368.584,143.36C370.911,144.636 370.647,147.36 378.543,144.942Z"/>
        <path d="M621.922,147.512C622.176,144.81 623.84,127.109 641.697,119.956C666.183,110.147 680.104,124.884 680.645,125.312C682.71,126.946 683.741,123.526 687.471,122.406C698.388,119.125 699.611,133.11 699.731,134.482C702.812,169.714 723.908,223.926 709.243,251.359C692.622,282.45 660.991,275.141 644.929,258.071C615.401,226.69 634.315,212.388 647.514,217.47C657.34,221.254 672.738,267.961 689.175,240.312C696.545,227.914 687.601,172.636 687.495,172.504C686.014,170.661 685.877,172.445 684.093,174.021C658.868,196.308 624.012,180.873 621.922,147.512Z" style="fill:rgb(1,1,1);"/>
        <path d="M869.942,438.481C870.468,500.941 838.799,530.557 808.7,511.217C794.115,501.845 785.437,451.973 781.394,446.577C780.003,444.721 778.63,444.947 776.092,419.538C774.349,402.086 787.994,379.599 791.837,388.351C801.028,409.283 783.719,424.159 798.575,431.338C806.147,434.997 813.19,427.083 814.059,426.107C817.727,421.985 835.429,404.522 845.405,401.228C863.303,395.319 869.063,422.673 869.942,438.481Z" style="fill:rgb(254,254,254);"/>
        <path d="M267.173,453.402C267.81,448.893 267.371,448.962 266.254,444.559C263.3,432.902 269.053,411.474 286.568,417.326C297.679,421.038 301.609,441.186 302.076,443.581C304.33,455.134 304.634,455.985 301.559,458.57C296.59,462.747 297.682,469.422 299.875,472.211C302.34,475.346 303.32,475.238 302.903,483.524C302.33,494.934 286.208,517.057 265.594,524.739C243.118,533.116 232.305,531.514 218.78,524.009C188.183,507.032 198.845,456.18 218.505,450.518C235.179,445.717 247.384,467.568 256.357,463.158C264.788,459.014 266.717,454.474 267.173,453.402Z" style="fill:rgb(254,254,254);"/>
        <path d="M910.937,594.537C910.161,602.079 908.522,659.653 872.713,731.608C855.035,767.129 834.789,790.74 806.122,819.12C803.094,822.118 795.511,830.907 786.784,824.165C772.578,813.192 798.4,799.81 833.989,750.856C906.444,651.193 892,568.717 898.649,522.527C900.092,512.498 916.581,512.359 915.75,525.517C912.516,576.68 911.425,589.024 910.937,594.537Z" style="fill:rgb(1,1,1);"/>
        <path d="M640.506,577.072C658.045,579.493 651.46,595.022 642.705,618.58C615.388,692.08 526.104,726.34 452.626,643.389C448.304,638.509 432.619,619.344 431.917,613.453C430.663,602.924 444.748,597.358 451.038,606.815C456.333,614.777 472.291,641.761 507.658,659.172C559.226,684.558 608.679,653.687 627.831,589.593C630.658,580.132 632.933,577.869 640.506,577.072Z"/>
        <path d="M436.949,513.457C436.576,511.75 436.789,511.725 436.124,510.736C417.088,482.438 425.676,427.793 452.52,424.65C495.373,419.632 496.407,489.549 490.222,518.444C481.542,558.993 451.003,544.463 450.643,544.247C437.627,536.455 437.499,518.491 436.949,513.457Z"/>
        <path d="M848.248,269.631C865.236,303.677 886.218,353.482 884.129,361.384C882.7,366.79 872.416,372.344 867.926,362.301C864.999,355.754 816.439,257.337 800.055,230.768C763.016,170.706 731.312,159.196 730.133,150.569C728.934,141.803 737.606,136.962 744.293,140.851C787.084,165.735 823.215,229.084 830.125,238.762C837.529,249.131 846.127,265.579 848.248,269.631Z"/>
        <path d="M650.581,847.968C683.769,841.299 709.952,829.396 729.492,829.085C732.065,829.044 753.92,828.696 756.548,846.494C760.104,870.59 635.459,896.793 606.692,879.196C595.44,872.313 613.309,852.185 615.892,849.955C622.362,844.366 634.832,841.507 636.468,841.719C640.354,842.223 637.854,849.558 650.581,847.968Z" style="fill:rgb(254,254,254);"/>
        <path d="M603.446,435.931C615.621,437.502 614.161,440.771 622.168,456.667C642.654,497.337 615.491,571.226 576.892,538.079C558.396,522.195 567.738,488.775 568.902,484.609C572.319,472.386 574.422,443.191 596.417,436.266C599.867,435.18 599.869,435.696 603.446,435.931Z"/>
        <path d="M495.66,868.37C498.296,872.126 501.246,875.442 491.075,886.079C473.309,904.66 446.664,904.755 442.5,904.77C407.792,904.894 358.969,893.876 365.992,876.706C368.544,870.469 378.627,857.803 389.603,853.79C415.621,844.276 451.954,864.392 483.46,861.11C488.191,860.617 489.159,859.316 491.662,863.402C491.929,863.837 491.958,863.77 495.66,868.37Z" style="fill:rgb(254,254,254);"/>
        <path d="M531.485,83.937C589.236,86.535 601.715,92.361 607.266,94.953C612.52,97.405 618.101,112.698 597.545,111.029C570.786,108.857 535.281,94.396 479.595,106.943C426.228,118.968 426.342,119.226 417.461,122.359C410.162,124.933 396.33,110.98 417.62,102.809C422.07,101.101 442.751,93.163 475.548,88.887C522.88,82.715 522.984,83.924 531.485,83.937Z" style="fill:rgb(1,1,1);"/>
        <path d="M474.083,766.439C474.862,762.004 474.802,762.019 474.924,761.65C475.579,759.669 483.642,759.553 498.463,758.097C506.492,757.308 513.481,755.614 512.145,758.327C509.848,762.992 508.87,762.535 496.967,792.68C479.808,836.139 488.678,839.116 487.44,841.464C485.973,844.247 456.573,844.139 458.752,838.589C463.888,825.505 463.218,825.345 474.083,766.439Z" style="fill:rgb(253,253,253);"/>
        <path d="M589.878,748.962C622.077,745.981 622.993,746.811 623.804,749.401C641.87,807.034 655.1,814.461 651.886,817.862C651.831,817.92 635.823,821.211 634.66,818.427C629.652,806.427 631.873,800.2 602.988,764.104C592.739,751.296 589.863,751.498 589.878,748.962Z" style="fill:rgb(253,253,253);"/>
        <path d="M346.506,187.94C344.696,187.861 331.446,187.282 328.229,174.559C324.432,159.545 362.777,144.679 369.413,164.532C370.572,167.997 365.721,186.28 346.506,187.94Z" style="fill:rgb(254,254,254);"/>
        <path d="M643.883,146.519C650.342,122.503 683.317,136.02 677.085,146.264C661.653,171.63 645.429,161.977 643.883,146.519Z" style="fill:rgb(253,253,253);"/>
        <path d="M765.879,494.366C767.677,499.099 769.204,501.594 766.544,502.602C755.725,506.703 749.199,508.452 740.443,517.432C739.097,518.812 738.237,518.522 738.12,516.596C737.274,502.62 733.354,497.974 750.801,485.932C760.374,479.325 761.283,478.915 761.728,480.355C763.908,487.418 763.655,487.396 765.879,494.366Z" style="fill:rgb(253,253,253);"/>
        <path d="M349.014,523.33C347.127,524.396 347.449,522.924 345.358,519.595C332.762,499.539 317.53,501.111 323.242,497.218C325.54,495.653 326.252,491.702 329.135,493.988C342.758,504.793 343.039,509.284 346.604,512.374C349.984,515.303 348.463,516.02 349.014,523.33Z" style="fill:rgb(250,250,250);"/>
        <path d="M192.221,893.811C192.461,894.07 197.687,899.686 193.61,898.003C192.463,897.53 185.592,891.105 192.221,893.811Z" style="fill:rgb(231,231,231);"/>
    </g>
</svg>
